<?xml version="1.0" standalone="no"?>
<!DOCTYPE svg PUBLIC "-//W3C//DTD SVG 20010904//EN"
 "http://www.w3.org/TR/2001/REC-SVG-20010904/DTD/svg10.dtd">
<svg version="1.0" xmlns="http://www.w3.org/2000/svg"
 width="247.000000pt" height="372.000000pt" viewBox="0 0 247.000000 372.000000"
 preserveAspectRatio="xMidYMid meet">

<g transform="translate(0.000000,372.000000) scale(0.100000,-0.100000)"
fill="#000000" stroke="none">
<path d="M668 3650 c-73 -22 -125 -78 -147 -156 -7 -25 -11 -167 -11 -386 l0
-348 40 0 40 0 0 275 0 275 706 0 707 0 -5 93 c-5 98 -20 140 -67 190 -59 65
-29 62 -661 64 -316 1 -587 -2 -602 -7z m948 -167 c12 -47 -47 -68 -61 -22 -8
24 11 49 36 49 12 0 21 -10 25 -27z m-128 -10 c-3 -17 -22 -18 -233 -18 -211
0 -230 1 -233 18 -3 16 13 17 233 17 220 0 236 -1 233 -17z"/>
<path d="M1936 3218 c-15 -47 -17 -138 -16 -590 l1 -508 -41 0 c-80 0 -100
-32 -100 -162 0 -59 5 -87 20 -115 26 -49 26 -115 -1 -170 -19 -40 -20 -56
-17 -300 3 -244 4 -260 25 -299 74 -138 232 -138 306 0 20 39 22 56 25 300 4
252 3 260 -18 299 -29 51 -30 124 -1 170 16 26 21 51 21 104 0 136 -21 173
-96 173 l-45 0 1 513 c1 281 -1 519 -4 527 -2 8 -7 27 -10 43 -7 28 -43 39
-50 15z m-11 -1853 l0 -260 -22 -3 -23 -3 0 259 c0 142 3 262 7 266 4 4 14 5
23 4 13 -3 15 -36 15 -263z m110 243 c3 -13 4 -131 3 -263 l-3 -240 -22 -3
-23 -3 0 259 c0 142 3 262 7 265 13 14 33 6 38 -15z"/>
<path d="M848 3060 c-10 -30 -11 -30 -35 -15 -33 22 -57 4 -49 -37 5 -24 2
-28 -18 -28 -13 0 -29 -7 -37 -16 -10 -13 -10 -20 5 -44 16 -29 16 -29 -9 -46
-32 -21 -32 -37 2 -62 25 -18 26 -22 15 -47 -16 -35 0 -57 34 -49 21 5 24 3
24 -24 0 -16 7 -35 15 -42 13 -10 19 -9 36 6 21 19 21 18 44 -10 20 -25 26
-28 39 -17 8 7 18 21 21 32 5 15 10 17 25 9 37 -20 50 -13 50 30 0 37 2 40 29
40 36 0 46 23 24 56 -15 24 -15 26 6 40 27 19 27 48 -1 66 -19 13 -20 18 -10
46 12 35 3 48 -38 54 -19 2 -26 10 -28 31 -4 35 -27 45 -51 23 -17 -16 -19
-15 -35 9 -22 34 -45 32 -58 -5z m91 -78 c87 -47 95 -178 15 -241 -30 -24 -86
-27 -122 -7 -88 48 -81 211 11 251 43 19 56 18 96 -3z"/>
<path d="M844 2951 c-42 -26 -61 -79 -45 -131 13 -45 47 -70 94 -70 92 0 125
151 44 200 -40 25 -54 25 -93 1z m97 -30 c56 -57 24 -154 -51 -154 -73 0 -108
102 -54 157 35 34 68 33 105 -3z"/>
<path d="M1226 2804 c-9 -8 -16 -21 -16 -27 0 -7 -4 -19 -9 -26 -8 -13 -15
-12 -45 4 -46 25 -66 10 -66 -51 0 -43 0 -44 -40 -50 -50 -8 -59 -32 -30 -81
l21 -36 -30 -24 c-43 -34 -41 -68 4 -94 34 -20 34 -21 20 -49 -30 -58 -11 -94
47 -88 32 3 33 2 36 -39 4 -57 30 -73 71 -43 16 11 31 20 34 20 3 0 14 -15 25
-34 26 -43 58 -39 78 10 16 39 16 39 55 19 22 -12 34 -13 50 -4 18 9 20 17 14
55 l-6 44 41 6 c55 9 66 32 38 80 l-22 37 32 26 c43 35 42 63 -3 91 -19 12
-35 23 -35 25 0 1 7 19 15 39 23 54 6 80 -46 73 l-39 -5 0 44 c0 33 -5 46 -20
54 -22 12 -33 8 -66 -21 -20 -19 -21 -18 -43 21 -24 43 -40 49 -65 24z m112
-138 c62 -32 102 -104 102 -181 0 -111 -74 -195 -172 -195 -77 0 -138 51 -163
137 -38 126 43 251 163 253 24 0 55 -6 70 -14z"/>
<path d="M1200 2618 c-92 -63 -92 -203 0 -265 92 -63 202 12 202 138 0 117
-112 188 -202 127z m130 -27 c53 -38 66 -119 30 -179 -49 -79 -149 -73 -190
13 -25 52 -25 68 0 121 35 70 99 89 160 45z"/>
<path d="M482 2595 l-32 -65 -52 35 c-62 41 -67 42 -102 14 -24 -19 -26 -27
-26 -92 l0 -72 -62 3 c-61 3 -64 2 -80 -26 -24 -40 -23 -48 12 -116 17 -32 29
-59 28 -60 -2 -1 -27 -17 -56 -35 -53 -34 -53 -34 -50 -80 3 -43 6 -48 55 -80
l52 -33 -33 -67 c-32 -64 -33 -67 -18 -98 15 -32 17 -33 84 -33 l68 0 0 -78
c0 -76 1 -78 30 -96 30 -17 31 -17 88 18 l57 35 33 -65 c30 -60 34 -64 67 -64
32 0 37 4 65 60 17 33 35 60 41 60 6 0 30 -13 54 -30 50 -35 57 -36 90 -14 23
15 25 23 25 90 l0 73 67 3 c63 3 68 5 85 35 l19 32 -30 60 c-17 33 -31 64 -31
68 0 4 25 24 55 43 52 33 55 37 55 76 0 39 -3 43 -55 78 -30 20 -55 39 -55 41
0 3 14 33 31 67 30 60 31 63 15 95 -15 32 -17 33 -81 33 l-65 0 0 74 c0 71 -1
76 -29 95 -16 12 -32 21 -35 21 -3 0 -30 -16 -61 -35 l-55 -36 -32 66 c-31 62
-34 65 -68 65 -34 0 -37 -3 -68 -65z m161 -181 c61 -21 131 -89 165 -162 23
-49 27 -70 27 -152 0 -82 -4 -103 -26 -151 -15 -32 -46 -76 -69 -99 -57 -57
-110 -80 -190 -80 -265 0 -394 353 -208 565 77 87 190 117 301 79z"/>
<path d="M438 2331 c-80 -51 -120 -127 -120 -232 0 -149 96 -260 226 -261 63
-1 111 19 154 62 129 129 99 360 -58 440 -61 31 -144 27 -202 -9z m210 -44
c121 -80 121 -295 -1 -375 -33 -22 -52 -27 -103 -27 -55 0 -67 4 -101 31 -77
62 -106 154 -79 249 40 137 174 195 284 122z"/>
<path d="M510 1077 c0 -404 4 -437 62 -496 68 -69 33 -66 661 -69 397 -2 580
1 610 9 58 15 130 90 145 152 7 25 12 84 12 131 l0 86 -705 0 -705 0 0 275 0
275 -40 0 -40 0 0 -363z m818 -270 c49 -49 45 -142 -7 -189 -105 -94 -239 78
-144 185 40 43 109 45 151 4z"/>
<path d="M190 238 c0 -5 5 -8 10 -8 13 0 13 -183 0 -196 -7 -7 2 -10 30 -10
26 0 37 3 30 10 -6 6 -10 27 -10 48 0 35 2 38 29 38 53 0 84 53 57 95 -9 14
-24 26 -34 27 -50 4 -112 2 -112 -4z m108 -46 c4 -35 -11 -62 -34 -62 -10 0
-14 14 -14 51 0 47 2 50 23 47 17 -2 23 -11 25 -36z"/>
<path d="M370 238 c0 -5 5 -8 10 -8 6 0 10 -38 10 -95 0 -76 -3 -96 -16 -103
-12 -6 -2 -9 32 -9 27 0 43 2 37 4 -8 3 -13 23 -13 54 l0 49 40 0 40 0 0 -43
c0 -24 -5 -48 -11 -54 -7 -7 2 -10 31 -10 29 0 38 3 31 10 -14 14 -15 189 -2
202 6 6 -5 10 -30 10 -26 1 -36 -2 -29 -9 6 -6 10 -27 10 -48 0 -38 0 -38 -41
-38 l-41 0 4 48 3 47 -32 0 c-18 0 -33 -3 -33 -7z"/>
<path d="M640 223 c-39 -35 -49 -92 -27 -146 41 -97 182 -65 194 44 6 51 -14
101 -46 119 -37 19 -89 12 -121 -17z m100 -3 c16 -16 20 -33 20 -85 0 -52 -4
-69 -20 -85 -48 -48 -90 -3 -90 94 0 58 22 96 55 96 8 0 24 -9 35 -20z"/>
<path d="M840 238 c0 -4 5 -8 10 -8 6 0 10 -38 10 -95 0 -75 -3 -96 -16 -103
-12 -6 -8 -9 15 -9 23 0 28 3 20 13 -5 7 -9 45 -7 85 l3 72 60 -86 c33 -47 63
-86 68 -87 4 0 7 46 7 103 0 57 4 107 9 112 6 6 -1 10 -20 11 -22 1 -27 -2
-19 -12 6 -7 10 -38 8 -70 l-3 -58 -47 69 c-37 52 -54 69 -73 70 -14 0 -25 -3
-25 -7z"/>
<path d="M1065 234 c21 -16 22 -189 0 -201 -9 -5 15 -8 58 -8 72 0 72 0 75 29
2 18 0 26 -7 21 -6 -3 -11 -13 -11 -21 0 -9 -11 -14 -30 -14 -29 0 -30 2 -30
45 0 38 3 45 19 45 11 0 22 -8 24 -18 3 -9 5 1 6 23 0 32 -2 36 -10 23 -20
-35 -39 -21 -39 27 0 41 2 45 23 45 15 0 28 -9 35 -22 11 -23 11 -23 11 4 1
26 0 26 -69 30 -54 2 -67 0 -55 -8z"/>
<path d="M1300 238 c0 -5 5 -8 10 -8 6 0 10 -38 10 -95 0 -75 -3 -96 -16 -103
-10 -6 -4 -8 23 -8 l38 0 -3 56 c-4 61 1 60 38 -8 20 -38 31 -48 55 -50 28 -4
29 -3 14 15 -9 10 -26 35 -38 57 l-22 39 21 14 c24 17 27 65 4 84 -18 14 -134
20 -134 7z m106 -35 c8 -30 -5 -56 -30 -61 -13 -3 -16 5 -16 42 0 39 3 46 20
46 13 0 22 -9 26 -27z"/>
<path d="M1500 238 c0 -5 5 -8 10 -8 13 0 13 -183 1 -195 -6 -6 16 -10 60 -11
l69 -1 -1 31 c0 30 -1 30 -11 9 -8 -16 -20 -23 -40 -23 -27 0 -28 2 -28 45 0
38 3 45 19 45 11 0 22 -8 24 -17 3 -10 5 0 6 22 0 32 -2 36 -10 23 -20 -35
-39 -21 -39 27 0 43 1 45 30 45 24 0 30 -4 30 -22 0 -27 7 -21 12 10 3 23 0
24 -65 25 -37 1 -67 -1 -67 -5z"/>
<path d="M1680 236 c13 -13 13 -189 0 -202 -7 -7 4 -10 30 -10 28 0 37 3 30
10 -5 5 -10 27 -10 48 0 37 1 38 34 38 55 0 85 60 52 105 -10 14 -27 18 -79
19 -42 1 -63 -2 -57 -8z m100 -31 c13 -34 -3 -75 -30 -75 -17 0 -20 6 -20 50
0 44 3 50 20 50 13 0 24 -10 30 -25z"/>
<path d="M1902 229 c-5 -13 -22 -58 -36 -99 -15 -41 -34 -82 -42 -91 -13 -15
-12 -16 15 -15 17 1 26 5 21 10 -4 4 -4 21 2 37 18 52 89 24 75 -30 -3 -13 4
-17 35 -17 35 -1 37 0 24 15 -8 9 -26 56 -41 106 -32 104 -41 118 -53 84z m12
-81 c9 -35 8 -38 -14 -38 -11 0 -20 3 -20 8 0 19 13 52 20 52 4 0 10 -10 14
-22z"/>
<path d="M2031 236 c12 -13 12 -189 -1 -202 -7 -7 4 -11 35 -11 32 0 42 3 31
9 -23 13 -23 185 -1 202 12 9 6 11 -29 11 -29 0 -41 -3 -35 -9z"/>
<path d="M2140 238 c0 -5 5 -8 10 -8 6 0 10 -38 10 -95 0 -78 -3 -96 -17 -103
-13 -8 -7 -10 23 -9 l39 1 -3 55 c-4 62 1 61 38 -7 20 -38 31 -48 55 -50 28
-4 29 -3 14 15 -9 10 -26 35 -38 57 l-22 39 21 14 c24 17 27 65 4 84 -18 14
-134 20 -134 7z m106 -35 c8 -30 -5 -56 -30 -61 -13 -3 -16 5 -16 42 0 39 3
46 20 46 13 0 22 -9 26 -27z"/>
</g>
</svg>
